# xmcd
#
# Track frame offsets: 
#        182
#        10100
#        23712
#        32777
#        43002
#        54030
#        65027
#        75012
#        87802
#        99592
#        109937
#        119630
#        132795
#        142280
#        154665
#        167732
#        177705
#        189385
#        200080
#        210710
#        226380
#        241502
#        255227
#        265385
#
# Disc length: 3720 seconds
#
# Revision: 2
# Processed by: cddbd v1.4PL0 Copyright (c) Steve Scherf et al.
# Submitted via: ExactAudioCopy v0.90b4
#
DISCID=440e8618
DTITLE=Patsy Cline - The Patsy Cline Story
DYEAR=1973
DGENRE=Country
TTITLE0=Heartaches
TTITLE1=She's Got You
TTITLE2=Walkin' After Midnight
TTITLE3=Strange
TTITLE4=Leavin' On Your Mind
TTITLE5=South Of The Border (Down Mexico Way)
TTITLE6=Foolin' Around
TTITLE7=I Fall To Pieces
TTITLE8=A Poor Man's Roses (Or A Rich Man's Gold)
TTITLE9=Tra Le La Le La Triangle
TTITLE10=True Love
TTITLE11=Imagine That
TTITLE12=Back In Baby's Arms
TTITLE13=Crazy
TTITLE14=You're Stronger Than Me
TTITLE15=Seven Lonely Days
TTITLE16=Sweet Dreams (Of You)
TTITLE17=Your Cheatin' Heart
TTITLE18=San Antonio Rose
TTITLE19=Why Can't He Be You
TTITLE20=The Wayward Wind
TTITLE21=So Wrong
TTITLE22=I Love You So Much It Hurts
TTITLE23=You Belong To Me
EXTD=
EXTT0=
EXTT1=
EXTT2=
EXTT3=
EXTT4=
EXTT5=
EXTT6=
EXTT7=
EXTT8=(Or a Rich Man's Gold)
EXTT9=
EXTT10=
EXTT11=
EXTT12=
EXTT13=
EXTT14=
EXTT15=
EXTT16=(Of You)
EXTT17=
EXTT18=
EXTT19=
EXTT20=
EXTT21=
EXTT22=
EXTT23=
PLAYORDER=
